<?xml version="1.0" standalone="no"?>
<!DOCTYPE svg PUBLIC "-//W3C//DTD SVG 20010904//EN"
 "http://www.w3.org/TR/2001/REC-SVG-20010904/DTD/svg10.dtd">
<svg version="1.0" xmlns="http://www.w3.org/2000/svg"
 width="284.000000pt" height="284.000000pt" viewBox="0 0 284.000000 284.000000"
 preserveAspectRatio="xMidYMid meet">
<metadata>
Created by potrace 1.14, written by Peter Selinger 2001-2017
</metadata>
<g transform="translate(0.000000,284.000000) scale(0.100000,-0.100000)"
fill="#000000" stroke="none">
<path d="M1696 2635 c-9 -37 -64 -124 -104 -167 -63 -66 -113 -76 -284 -52
-42 5 -52 3 -92 -27 l-46 -32 -68 13 c-138 26 -272 -7 -329 -81 -34 -44 -34
-52 -12 -169 15 -76 37 -131 62 -158 12 -13 56 -39 97 -58 127 -59 184 -129
195 -240 6 -57 3 -79 -14 -124 -12 -30 -21 -72 -21 -92 0 -24 -11 -55 -29 -86
-31 -49 -41 -105 -56 -302 -6 -71 -4 -95 13 -146 28 -82 33 -112 19 -121 -7
-5 -37 -12 -67 -18 -73 -13 -94 -44 -103 -151 -8 -86 -16 -99 -99 -161 -62
-45 -66 -79 -12 -89 47 -9 96 7 213 67 106 55 129 58 177 28 30 -18 45 -20
148 -16 64 3 120 8 126 12 6 3 108 11 228 16 430 20 417 19 446 44 32 27 66
114 66 167 0 24 -8 46 -25 67 -19 21 -24 37 -20 54 5 19 0 29 -19 44 -22 18
-45 21 -188 26 -90 3 -181 11 -203 17 -55 17 -111 79 -152 169 -19 42 -39 85
-45 97 -17 36 -6 79 20 82 13 2 30 -2 39 -10 22 -18 189 -13 220 7 12 8 38 39
56 68 19 29 53 68 76 86 26 21 41 41 41 55 0 20 -21 64 -128 266 -16 30 -33
69 -36 86 -4 18 -22 49 -39 70 -38 45 -57 85 -57 118 0 13 -7 29 -15 36 -8 7
-15 23 -15 36 0 13 -9 42 -21 64 -24 46 -18 76 28 143 31 45 78 67 142 67 42
0 51 5 104 56 35 34 57 64 57 77 0 14 -30 53 -79 105 l-79 82 -55 0 c-50 0
-55 -2 -61 -25z m120 -102 c60 -65 69 -101 32 -127 -20 -14 -26 -13 -78 15
-48 25 -59 37 -69 68 -15 51 -14 61 6 83 27 30 53 21 109 -39z m-253 -203 c32
-26 25 -50 -14 -50 -22 0 -32 6 -39 26 -18 46 9 58 53 24z m-653 -29 c0 -21
-35 -51 -58 -51 -21 0 -26 30 -7 50 24 27 65 27 65 1z m504 -2 c31 -25 74
-108 82 -160 5 -30 2 -39 -17 -53 -13 -9 -27 -16 -30 -16 -22 0 -119 94 -129
124 -6 19 -18 40 -26 46 -36 30 3 80 62 80 17 0 43 -10 58 -21z m-330 -73 c91
-51 135 -94 157 -151 25 -65 24 -90 -3 -109 -28 -20 -87 -21 -113 -2 -11 7
-31 17 -45 22 -42 15 -114 64 -135 92 -27 37 -34 136 -10 162 27 30 79 25 149
-14z m-189 -170 c18 -27 11 -53 -16 -61 -37 -12 -60 26 -43 69 9 24 41 19 59
-8z m693 -32 c12 -8 22 -24 22 -34 0 -10 7 -25 15 -34 25 -24 65 -112 65 -141
0 -16 15 -45 39 -73 21 -26 48 -66 60 -89 11 -23 34 -61 49 -85 16 -24 32 -63
36 -86 6 -41 4 -46 -33 -83 -35 -35 -44 -39 -87 -38 -122 1 -244 30 -335 79
-20 11 -50 20 -66 20 -64 0 -167 123 -184 219 -5 31 -14 72 -20 92 -17 56 0
81 54 77 40 -3 43 -6 67 -55 14 -29 31 -58 38 -65 6 -6 12 -19 12 -27 0 -21
48 -80 84 -102 17 -10 48 -19 69 -19 40 0 147 -47 183 -81 29 -27 34 -24 34
21 0 29 -7 48 -29 72 -41 48 -48 65 -66 164 -20 103 -32 130 -87 190 -58 63
-49 80 47 93 6 0 21 -6 33 -15z m-210 -90 c12 -8 22 -24 22 -35 0 -11 18 -50
40 -86 22 -37 40 -73 40 -80 0 -7 -11 -19 -25 -25 -33 -15 -42 -6 -95 96 -59
117 -51 179 18 130z m-40 -540 c30 -24 40 -26 90 -21 69 7 112 -11 112 -48 0
-45 -68 -60 -113 -25 -14 11 -30 20 -36 20 -6 0 -20 5 -30 12 -27 17 -51 4
-44 -24 3 -13 11 -30 18 -38 36 -43 65 -114 65 -156 0 -50 -15 -63 -51 -44
-32 17 -121 18 -152 1 -19 -10 -28 -25 -32 -50 -3 -20 -9 -53 -14 -73 -7 -32
-5 -40 15 -59 31 -29 50 -19 57 31 7 52 31 80 69 80 64 0 102 -82 78 -172 -7
-27 -9 -52 -6 -55 3 -4 24 8 46 26 54 43 72 48 138 38 31 -5 130 -10 219 -11
161 -2 162 -2 204 -31 44 -31 95 -98 86 -112 -3 -5 -8 -33 -12 -63 -3 -30 -12
-61 -19 -68 -16 -16 -456 -41 -650 -36 -121 3 -142 6 -159 22 -15 15 -17 25
-10 53 l9 34 342 -3 c330 -2 373 1 325 26 -10 6 -135 13 -278 17 -195 6 -265
11 -280 21 -11 8 -33 14 -50 14 -16 0 -49 9 -73 20 -33 15 -47 29 -62 62 -11
24 -20 57 -20 73 0 17 -7 39 -15 49 -8 11 -15 35 -15 53 0 18 -7 48 -17 67
-14 31 -15 43 -4 103 7 37 16 86 20 109 9 50 42 109 62 109 8 0 20 -18 27 -40
29 -92 43 -115 74 -115 26 0 28 3 28 41 0 23 -8 63 -17 88 -16 46 -16 49 3 74
24 33 29 33 72 1z m-227 -695 c33 -23 36 -46 13 -92 -23 -46 -53 -76 -99 -99
-22 -11 -54 -31 -72 -44 -19 -15 -45 -24 -67 -24 -53 0 -47 28 19 100 38 41
55 68 55 86 0 34 62 94 97 94 14 0 38 -9 54 -21z"/>
</g>
</svg>
